PathFileType	4	(X/Y/Z)	/Users/niels/Desktop/University/Third Semester/Perception and Action/Exam/Gymnastics Motion Tracking/Code for Gym Tracking/Analyzed Data/Webcam_Backflip/id3_1_trajectory_Sports2D/id3_1_trajectory_Sports2D_px_person00.trc
DataRate	CameraRate	NumFrames	NumMarkers	Units	OrigDataRate	OrigDataStartFrame	OrigNumFrames
29.708737864077673	29.708737864077673	10	22	m	29.708737864077673	77	103
Frame#	Time	Hip			RHip			RKnee			RAnkle			RBigToe			RSmallToe			RHeel			LHip			LKnee			LAnkle			LBigToe			LSmallToe			LHeel			Neck			Head			Nose			RShoulder			RElbow			RWrist			LShoulder			LElbow			LWrist		
		X1	Y1	Z1	X2	Y2	Z2	X3	Y3	Z3	X4	Y4	Z4	X5	Y5	Z5	X6	Y6	Z6	X7	Y7	Z7	X8	Y8	Z8	X9	Y9	Z9	X10	Y10	Z10	X11	Y11	Z11	X12	Y12	Z12	X13	Y13	Z13	X14	Y14	Z14	X15	Y15	Z15	X16	Y16	Z16	X17	Y17	Z17	X18	Y18	Z18	X19	Y19	Z19	X20	Y20	Z20	X21	Y21	Z21	X22	Y22	Z22
77	2.591830065359477	1.0818375786482461	-0.4511029760373285	0.0	1.054541104483749	-0.45265427101574246	0.0	1.043276182299204	-0.5700671044961083	0.0	1.039567591592735	-0.695496626032049	0.0	1.0370730820177605	-0.7401062750324424	0.0	1.0214892399204847	-0.7345281675345711	0.0	1.0468460150625831	-0.7089702470696722	0.0	1.1082378813540685	-0.4589924745875277	0.0	1.1022058978096414	-0.579055677178806	0.0	1.0905330523748342	-0.6989082225263241	0.0	1.0904719718879365	-0.7479332053538914	0.0	1.1057537507897641	-0.7446831324301525	0.0	1.0812445592715434	-0.7097267549880991	0.0	1.11441273127261	-0.261120834630067	0.0	1.1292007150253578	-0.17863417694466135	0.0	1.1226082924923362	-0.22617253198439866	0.0	1.0572455804552219	-0.28054756404341935	0.0	1.0050102363859381	-0.3459354579394019	0.0	1.0145899525400657	-0.41977553964617376	0.0	1.1611928597727794	-0.29733065092962935	0.0	1.182308774267963	-0.37440373590610365	0.0	1.1854675748243444	-0.4488452757489332	0.0
78	2.6254901960784314	1.0863731275597106	-0.43452454034451227	0.0	1.0586548932501432	-0.43673495509056576	0.0	1.0479096080500996	-0.5541461082809406	0.0	1.0457929353613356	-0.6791049652499026	0.0	1.042850711447757	-0.7237422499780349	0.0	1.0281720491132977	-0.7181137207321963	0.0	1.0536072892739234	-0.6915556529312846	0.0	1.113318411028965	-0.4428664296980431	0.0	1.10772065745352	-0.563429575025626	0.0	1.0968876923217672	-0.6823772761825149	0.0	1.0955968899625135	-0.7311475831816328	0.0	1.1115671397309737	-0.7282945918576653	0.0	1.0876194126957008	-0.6923078604051113	0.0	1.1167949900765852	-0.24297525476628865	0.0	1.129489496071131	-0.16018466337818985	0.0	1.1238001108351219	-0.20775722176122483	0.0	1.0594849798718504	-0.2624473646654291	0.0	1.00524610361751	-0.32676062207395506	0.0	1.020155218468015	-0.396418053866227	0.0	1.1643391486449808	-0.27847522659646956	0.0	1.1876100516971348	-0.3555550267003073	0.0	1.1899133897175986	-0.42901148976620584	0.0
79	2.6591503267973855	1.0907681470757427	-0.42169365163823275	0.0	1.062615567810277	-0.42428651442767157	0.0	1.0526712731329906	-0.5422534980662169	0.0	1.0519579318242855	-0.6667619992682461	0.0	1.0496348993188507	-0.7111899272047122	0.0	1.0353330085950434	-0.7057103833998544	0.0	1.0598068847611406	-0.6784959898245658	0.0	1.1182905623895336	-0.43029107170320535	0.0	1.113503099288911	-0.5516064458280016	0.0	1.1035833867988432	-0.6697166436088858	0.0	1.1013553002011336	-0.7182454358753473	0.0	1.1181034708779407	-0.7155946201477004	0.0	1.0941832640608713	-0.6790919798973154	0.0	1.119261283871688	-0.22898196650040004	0.0	1.1300971225199377	-0.14618944180184856	0.0	1.1251845139383125	-0.19348117919491406	0.0	1.0615853151442993	-0.2487580263754575	0.0	1.0061944968661425	-0.31234273678075547	0.0	1.026226164795839	-0.3772648491138767	0.0	1.1677644952572184	-0.26427222990563837	0.0	1.1924911089415815	-0.34137020661247836	0.0	1.19417747369744	-0.41405653973145246	0.0
80	2.6928104575163396	1.0949745756947773	-0.41248774987732406	0.0	1.0664519131395815	-0.41517261001386946	0.0	1.0575607097544706	-0.534289258955472	0.0	1.0580730130250444	-0.6584322037482017	0.0	1.0567700695523066	-0.7025545732800378	0.0	1.0424870791804666	-0.6972913752082691	0.0	1.0657339087391824	-0.6697072828187222	0.0	1.123054236393739	-0.4210489309435067	0.0	1.119500704382587	-0.5433703313430325	0.0	1.1107171280783072	-0.660995753576328	0.0	1.10793751191691	-0.7094073746160277	0.0	1.125383876162581	-0.7067212238878656	0.0	1.1010291492929853	-0.6700866594260859	0.0	1.1218559190842303	-0.21907267326849159	0.0	1.1310929351654764	-0.13642710463129437	0.0	1.1268803080582033	-0.18326828882102958	0.0	1.0637526724303858	-0.23921877241271025	0.0	1.0080389383631103	-0.3024612374533213	0.0	1.0327190191054925	-0.3625838133058671	0.0	1.1714113338077854	-0.2544292118813889	0.0	1.197021714039741	-0.3316177883369127	0.0	1.1983225508899562	-0.4038785531088391	0.0
81	2.726470588235294	1.0990113697185522	-0.40692969898832404	0.0	1.0702166789484306	-0.40948363618070205	0.0	1.0625874707869092	-0.5301418645486248	0.0	1.0642177269122637	-0.6540792323430986	0.0	1.063907058544183	-0.697983854988688	0.0	1.0494874845494357	-0.692932240531335	0.0	1.071697692402872	-0.6650769199249519	0.0	1.1275604813647522	-0.41518503871938195	0.0	1.1256467257060176	-0.5385930522146064	0.0	1.118342299749714	-0.6562390532140536	0.0	1.115571603313742	-0.7047492630039169	0.0	1.1334586297826408	-0.7017926885810171	0.0	1.1082565802467954	-0.6652120550443439	0.0	1.1246382440902292	-0.21319656663109043	0.0	1.1325247860476946	-0.1306493751841105	0.0	1.1289297887603826	-0.1770595803858552	0.0	1.0662001041052573	-0.23364068258763682	0.0	1.010840823309892	-0.2969012595316852	0.0	1.0395431520003824	-0.3525909883985987	0.0	1.1752392090489763	-0.24867307893753163	0.0	1.2013158937367374	-0.32611678635770625	0.0	1.2023867748283132	-0.3983380803320911	0.0
82	2.7601307189542483	1.102950295120957	-0.40515650889596955	0.0	1.0739776096131073	-0.4074565735983192	0.0	1.067769560459297	-0.5297235636988611	0.0	1.0704690649247521	-0.6537013342560677	0.0	1.0710797440231146	-0.697626366214399	0.0	1.0565038040354686	-0.692748539113118	0.0	1.0778762734006186	-0.66453771201393	0.0	1.1318171602113682	-0.41291501492038574	0.0	1.1318694983309026	-0.5372956746216624	0.0	1.126470016507772	-0.6554297881111049	0.0	1.1245087105828597	-0.7043088976115087	0.0	1.1423910499478007	-0.7008849381653796	0.0	1.1159312689982759	-0.6643832537956155	0.0	1.1276732027917058	-0.21130176123975586	0.0	1.1344485717242534	-0.1286622742304992	0.0	1.1313137909073552	-0.1748573772729331	0.0	1.0690718143641857	-0.23197063010663524	0.0	1.0145460598656824	-0.29553170910648163	0.0	1.0466168148007877	-0.34745645206500037	0.0	1.179231088073498	-0.2468554005178762	0.0	1.2054792277684707	-0.32474881619997986	0.0	1.2063652325106113	-0.3973259308512742	0.0
83	2.7937908496732025	1.1068972998313718	-0.40731315230973725	0.0	1.0777931501262776	-0.409300598210598	0.0	1.0731240995263047	-0.5329657493092652	0.0	1.0768572530044302	-0.6573110867386153	0.0	1.078573087254701	-0.7015717844300474	0.0	1.0638402414441201	-0.6968134272054877	0.0	1.084256420639606	-0.6680933428996843	0.0	1.1359025972263552	-0.4144442678313775	0.0	1.138115119147624	-0.5395819147849227	0.0	1.1350707591138862	-0.6585633376413249	0.0	1.1349314306719418	-0.708056141294485	0.0	1.1521816989148355	-0.7040290016475029	0.0	1.12407837272037	-0.6676083227487077	0.0	1.1309952858415524	-0.2133589407716237	0.0	1.136884356438287	-0.13042088880866579	0.0	1.1339568642866813	-0.17674564874061005	0.0	1.07240646557293	-0.2342849616581176	0.0	1.0190331272873752	-0.2983296965251581	0.0	1.0538874906618032	-0.34735752531168973	0.0	1.183326794515088	-0.24897853353064506	0.0	1.2095434469650177	-0.32742789455846383	0.0	1.210223233096876	-0.400783836452455	0.0
84	2.8274509803921566	1.1109537991960603	-0.41347454509457565	0.0	1.0816988977936581	-0.415117255810209	0.0	1.0786692024704145	-0.5398444777552707	0.0	1.0833877079606067	-0.6649357578451472	0.0	1.0866907165702264	-0.7098287520631029	0.0	1.0717237068891114	-0.7051464568485071	0.0	1.0907027447250979	-0.6758381027175505	0.0	1.1399393526434831	-0.4199055698307443	0.0	1.1443622282130925	-0.5455693607093842	0.0	1.1440833660234786	-0.6657118644516161	0.0	1.1467865729345397	-0.7159681753983571	0.0	1.1626802318030893	-0.7112645245580405	0.0	1.13270708835029	-0.675044749462449	0.0	1.1345774961763446	-0.2194174663831254	0.0	1.1397763212681884	-0.1360173681674208	0.0	1.1367525602691086	-0.1828796709113742	0.0	1.0761132804774824	-0.24074839841579482	0.0	1.0241457664096982	-0.30537398598834253	0.0	1.061318811250404	-0.35249698457569956	0.0	1.187431383467514	-0.2551785934230065	0.0	1.2134735754007675	-0.3341656172829194	0.0	1.213914275191639	-0.4087166353963512	0.0
85	2.861111111111111	1.1151715324944846	-0.4236979403840718	0.0	1.0857265806657024	-0.4250201611404226	0.0	1.084423076930228	-0.5504886020462648	0.0	1.090083073076183	-0.6766292946067298	0.0	1.095534353613391	-0.7223314747512829	0.0	1.0801560693828889	-0.7177389524783767	0.0	1.0971270252197973	-0.6879192002894767	0.0	1.1440294739888344	-0.4294768071787018	0.0	1.1506080847540199	-0.5554460872048005	0.0	1.1534072423006203	-0.6770328508389927	0.0	1.1596508422677259	-0.7280753033185798	0.0	1.1735611242624737	-0.7226739017078723	0.0	1.1418322999528272	-0.6869585596165405	0.0	1.1383297548197646	-0.22960401828321336	0.0	1.1429980157834165	-0.14558349204102605	0.0	1.1396196103609837	-0.19339891345223487	0.0	1.0799741920933628	-0.2515621848778201	0.0	1.0297085338228025	-0.31682819539368867	0.0	1.068830961448841	-0.36305368180829256	0.0	1.1914766303541011	-0.26565742340220383	0.0	1.2172217859054746	-0.3451437679183376	0.0	1.2174017097781757	-0.42118725662649503	0.0
86	2.8947712418300653	1.1195504392946518	-0.43816266925314706	0.0	1.0899347933270516	-0.4393028759664023	0.0	1.0903700552535798	-0.5652261917494324	0.0	1.0969865850257934	-0.6924758021390737	0.0	1.1049178401802708	-0.73892630166437	0.0	1.088901403599437	-0.7345346668678217	0.0	1.1035882726553645	-0.7044444089565836	0.0	1.1482186002600172	-0.4435092653148035	0.0	1.1568313822165548	-0.5695308825498624	0.0	1.1628481717833348	-0.6927215194027465	0.0	1.1727653927023378	-0.7444320075446366	0.0	1.1843552335557312	-0.7383403467108925	0.0	1.1514322039797105	-0.7036193779697238	0.0	1.1421162342072988	-0.24405878537147405	0.0	1.1463563912577266	-0.15922563196505435	0.0	1.1425458376878947	-0.2083235305090666	0.0	1.0837021701511267	-0.26692739251056885	0.0	1.0355553006976088	-0.3329093642786261	0.0	1.0762592615282196	-0.37915111446958255	0.0	1.1954449824039295	-0.28061290796234417	0.0	1.2207465077204356	-0.360660161711102	0.0	1.220677195219253	-0.43828230063570633	0.0
